<svg xmlns="http://www.w3.org/2000/svg" width="510" height="370" viewBox="0 0 510 370"><path d="M 166.44 38.81 L 247.06 38.69 L 309.66 38.97 L 354.22 39.66 L 380.75 40.75 L 389.25 42.25 L 397.06 44.00 L 404.19 46.00 L 410.62 48.25 L 416.38 50.75 L 422.34 54.22 L 428.53 58.66 L 434.94 64.06 L 441.56 70.44 L 447.22 76.72 L 451.91 82.91 L 455.62 89.00 L 458.38 95.00 L 460.62 100.69 L 462.38 106.06 L 463.62 111.12 L 464.38 115.88 L 464.88 120.88 L 465.12 126.12 L 465.12 131.62 L 464.88 137.38 L 464.44 142.62 L 463.81 147.38 L 463.00 151.62 L 462.00 155.38 L 460.88 158.94 L 459.62 162.31 L 458.25 165.50 L 456.75 168.50 L 454.53 171.97 L 451.59 175.91 L 447.94 180.31 L 443.56 185.19 L 439.53 189.34 L 435.84 192.78 L 432.50 195.50 L 429.50 197.50 L 426.38 199.38 L 423.12 201.12 L 419.75 202.75 L 416.25 204.25 L 412.62 205.62 L 408.88 206.88 L 405.00 208.00 L 401.00 209.00 L 394.53 209.91 L 385.59 210.72 L 374.19 211.44 L 360.31 212.06 L 350.53 213.09 L 344.84 214.53 L 343.25 216.38 L 345.75 218.62 L 353.69 227.12 L 367.06 241.88 L 385.88 262.88 L 410.12 290.12 L 428.22 310.66 L 440.16 324.47 L 445.94 331.56 L 445.56 331.94 L 436.78 332.22 L 419.59 332.41 L 394.00 332.50 L 360.00 332.50 L 324.66 320.97 L 287.97 297.91 L 249.94 263.31 L 210.56 217.19 L 181.12 182.38 L 161.62 158.88 L 152.06 146.69 L 152.44 145.81 L 164.47 145.16 L 188.16 144.72 L 223.50 144.50 L 270.50 144.50 L 306.38 144.25 L 331.12 143.75 L 344.75 143.00 L 347.25 142.00 L 349.47 140.84 L 351.41 139.53 L 353.06 138.06 L 354.44 136.44 L 355.53 134.41 L 356.34 131.97 L 356.88 129.12 L 357.12 125.88 L 357.03 122.91 L 356.59 120.22 L 355.81 117.81 L 354.69 115.69 L 353.47 113.84 L 352.16 112.28 L 350.75 111.00 L 349.25 110.00 L 347.62 109.12 L 345.88 108.38 L 344.00 107.75 L 342.00 107.25 L 325.56 106.88 L 294.69 106.62 L 249.38 106.50 L 189.62 106.50 L 141.41 102.41 L 104.72 94.22 L 79.56 81.94 L 65.94 65.56 L 55.72 53.16 L 48.91 44.72 L 45.50 40.25 L 45.50 39.75 L 65.66 39.34 L 105.97 39.03 Z M 119.75 146.50 L 121.25 147.50 L 128.06 155.31 L 140.19 169.94 L 157.62 191.38 L 180.38 219.62 L 196.81 245.06 L 206.94 267.69 L 210.75 287.50 L 208.25 304.50 L 206.22 317.41 L 204.66 326.22 L 203.56 330.94 L 202.94 331.56 L 194.09 332.03 L 177.03 332.34 L 151.75 332.50 L 118.25 332.50 L 93.03 332.34 L 76.09 332.03 L 67.44 331.56 L 67.06 330.94 L 67.03 329.84 L 67.34 328.28 L 68.00 326.25 L 69.00 323.75 L 69.75 321.50 L 70.25 319.50 L 70.50 317.75 L 70.50 316.25 L 71.75 310.62 L 74.25 300.88 L 78.00 287.00 L 83.00 269.00 L 87.00 254.19 L 90.00 242.56 L 92.00 234.12 L 93.00 228.88 L 93.88 224.81 L 94.62 221.94 L 95.25 220.25 L 95.75 219.75 L 96.38 218.06 L 97.12 215.19 L 98.00 211.12 L 99.00 205.88 L 100.50 199.31 L 102.50 191.44 L 105.00 182.25 L 108.00 171.75 L 110.56 163.19 L 112.69 156.56 L 114.38 151.88 L 115.62 149.12 L 116.94 147.31 L 118.31 146.44 Z" fill="#173847" fill-rule="evenodd"/></svg>